<svg xmlns="http://www.w3.org/2000/svg" viewBox="0 0 131.19 154.84"><defs><style>.cls-1{fill:#dff9cd;}.cls-2{fill:#e2988f;}.cls-3{fill:#94a5e4;}.cls-4{fill:#6c82bc;}.cls-5{fill:#fff;}.cls-6{fill:#c46966;}.cls-7{fill:#4c224b;}</style></defs><title>team4</title><g id="Livello_2" data-name="Livello 2"><g id="BACKGROUND"><rect class="cls-1" width="131.19" height="154.84"/></g><g id="OBJECTS"><path class="cls-2" d="M97.41,120.13c-9.81-3.91-19.31-7.34-19.31-7.34l0,0v-18h-23v17.94h0s-9.47,3.43-19.26,7.34C57,132.47,77.57,132.71,97.41,120.13Z"/><path class="cls-3" d="M118,129c-3.48-3.68-34-14-35.25-14.49-10.74,3.56-20.37,3-31.24-.43-1.1.41-32.83,11.2-36.34,14.92C10,134.49,6,154.77,6,154.77H127.22S123.22,134.49,118,129Zm-51.2.47h0Z"/><rect class="cls-4" x="26.36" y="142.79" width="0.75" height="12.05" transform="translate(-22.42 5.83) rotate(-8.79)"/><rect class="cls-4" x="100.37" y="148.44" width="12.05" height="0.75" transform="translate(-56.91 231.28) rotate(-81.23)"/><path class="cls-3" d="M55,107.91l-3.4,6.17,4.61,10.66,2.61-5.93,7.82-1.69A15.72,15.72,0,0,1,55,107.91Z"/><path class="cls-4" d="M56.4,125.12l-.39-.43a18.51,18.51,0,0,1-4.83-10.57l.75-.08a17.63,17.63,0,0,0,4.26,9.71l3-6.57,7.41-.43,0,.74-7,.41Z"/><path class="cls-4" d="M59.18,117.85c-2.9-2-4.47-4.94-4.81-8.94l.75-.06c.32,3.76,1.79,6.5,4.49,8.38Z"/><path class="cls-3" d="M78.22,107.91l3.4,6.17L77,124.74l-2.61-5.93-7.81-1.69A15.72,15.72,0,0,0,78.22,107.91Z"/><path class="cls-4" d="M76.77,125.12l-3.24-7.22-7-.41,0-.74,7.42.43,3,6.57A17.56,17.56,0,0,0,81.24,114l.75.08a18.51,18.51,0,0,1-4.83,10.57Z"/><path class="cls-4" d="M74,117.85l-.43-.62c2.7-1.88,4.17-4.62,4.49-8.38l.75.06C78.46,112.91,76.89,115.83,74,117.85Z"/><rect class="cls-4" x="63.96" y="117.32" width="0.75" height="37.45"/><rect class="cls-4" x="68.47" y="117.32" width="0.75" height="37.45"/><path class="cls-5" d="M67.41,119.42a.91.91,0,1,1-1.81,0,.91.91,0,0,1,1.81,0Z"/><path class="cls-5" d="M67.41,149.72a.91.91,0,1,1-1.81,0,.91.91,0,0,1,1.81,0Z"/><polygon class="cls-4" points="53.19 151.92 52.44 151.92 52.44 148.13 36.46 148.13 36.46 151.92 35.71 151.92 35.71 147.38 53.19 147.38 53.19 151.92"/><polygon class="cls-4" points="97.78 151.92 97.03 151.92 97.03 148.13 81.05 148.13 81.05 151.92 80.3 151.92 80.3 147.38 97.78 147.38 97.78 151.92"/><path class="cls-2" d="M66.56,57.1c-13.93,0-19.71,10.75-19.21,24L48,90.33c2.77,11,11.26,18.55,18.6,18.55s15.84-7.59,18.61-18.55l.61-9.22C86.28,67.85,80.49,57.1,66.56,57.1Z"/><path class="cls-2" d="M49,78.23S43.67,74.49,40.64,80s5,14.82,7.44,10.6Z"/><path class="cls-2" d="M83.84,78.26s5.55-3.77,8.52,1.73-4.94,14.82-7.29,10.6Z"/><path class="cls-6" d="M44.47,88.49c-1.92-2.47-2.5-4.8-1.72-6.94l.71.25c-.69,1.89-.15,4,1.6,6.23Z"/><path class="cls-6" d="M46.14,87a1.56,1.56,0,0,0-1-.79,2.14,2.14,0,0,0-1.45.33L43.29,86a3,3,0,0,1,2-.44,2.22,2.22,0,0,1,1.45,1.14Z"/><path class="cls-6" d="M88.72,88.49,88.13,88c1.75-2.25,2.29-4.34,1.61-6.23l.7-.25C91.22,83.69,90.64,86,88.72,88.49Z"/><path class="cls-6" d="M87.06,87l-.65-.38a2.27,2.27,0,0,1,1.45-1.14,2.94,2.94,0,0,1,2,.44l-.42.62A2.25,2.25,0,0,0,88,86.25,1.54,1.54,0,0,0,87.06,87Z"/><path class="cls-7" d="M79.29,93c-3.2.12,2.23-6.65-12.66-6.66S57.29,93.11,54.09,93c-4.63-.11-3.44-11.33-5.93-11.33l-.07,8.91s-2.8,22.87,18.54,22.55S85.41,90.59,85.41,90.59l-.19-8.91C82.55,81.68,83.45,92.9,79.29,93Z"/><path class="cls-7" d="M67.57,56v-.07c-.36,0-.71,0-1.06,0s-.71,0-1.07,0V56c-12.33.7-20.19,7.63-19.67,21l1.61.4S49.4,68,53,65.59a46.08,46.08,0,0,0,13.48,1.88A46,46,0,0,0,80,65.59c3.63,2.37,5.65,11.83,5.65,11.83l1.61-.4C87.76,63.62,79.9,56.69,67.57,56Z"/></g></g></svg>