<svg xmlns="http://www.w3.org/2000/svg" viewBox="0 0 131.19 154.85"><defs><style>.cls-1{fill:#f9deed;}.cls-2{fill:#e2988f;}.cls-3{fill:#94a5e4;}.cls-4{fill:#6c82bc;}.cls-5{fill:#fff;}.cls-6{fill:#4c224b;}.cls-7{fill:#c46966;}</style></defs><title>team1</title><g id="Livello_2" data-name="Livello 2"><g id="BACKGROUND"><rect class="cls-1" width="131.19" height="154.84"/></g><g id="OBJECTS"><rect class="cls-2" x="52.73" y="89.76" width="25.63" height="28.06"/><path class="cls-3" d="M122,132.69c-5.18-5.5-43.34-20.89-43.34-20.89-2.46,2.26-8.43,3.41-13.07,3.45s-10.91-1.19-13.37-3.45c0,0-37.87,15.39-43,20.89S0,154.84,0,154.84H131.19S127.19,138.18,122,132.69Z"/><path class="cls-4" d="M19,154.85c-.3-14.76-5.39-19.48-5.44-19.52l.5-.56c.22.19,5.39,4.92,5.69,20.06Z"/><path class="cls-4" d="M113.79,154.85l-.75,0c.31-15.14,5.47-19.87,5.69-20.06l.5.56S114.09,140.09,113.79,154.85Z"/><path class="cls-4" d="M65.63,118.62a36.62,36.62,0,0,1-8-.86l.16-.73a37.66,37.66,0,0,0,15.82,0l.15.74A40.06,40.06,0,0,1,65.63,118.62Z"/><polygon class="cls-5" points="52.73 108.34 48.95 113.18 59.17 123.91 60.3 115.85 64.22 115.25 52.73 108.34"/><polygon class="cls-5" points="78.45 108.34 82.22 113.18 72 123.75 70.87 115.85 66.95 115.25 78.45 108.34"/><rect class="cls-4" x="19" y="148.76" width="94.41" height="0.75"/><path class="cls-6" d="M45.51,76.4S41.15,51.05,65.67,51.05,85.59,76.4,85.59,76.4s2.13,22.44-20,22.44S45.51,76.4,45.51,76.4Z"/><path class="cls-2" d="M65.54,53.63c-12.46,0-17.63,10.74-17.18,24l.55,9.23c2.47,11,8.4,14.82,16.63,14.8,8.43,0,14.15-3.84,16.63-14.8l.54-9.23C83.16,64.37,78,53.63,65.54,53.63Z"/><path class="cls-7" d="M65.59,103.28H65.5c-5.77,0-10-2.3-13.14-7.23l.63-.41c3,4.7,7,6.89,12.51,6.89h.08c5.75,0,9.47-2,12.45-6.8l.64.39C75.54,101.14,71.62,103.28,65.59,103.28Z"/><path class="cls-2" d="M48.54,78s-4.16-4.13-7.38.3,5.35,11.93,7.9,8.54Z"/><path class="cls-2" d="M82.55,78s4.17-4.13,7.39.3S84.59,90.25,82,86.86Z"/><path class="cls-7" d="M45.47,85.24c-1.95-2-2.53-3.94-1.73-5.72l.68.31c-.67,1.49-.15,3.09,1.59,4.89Z"/><path class="cls-7" d="M47.13,84.06c-.88-1.21-2.41-.39-2.47-.35l-.36-.66a2.64,2.64,0,0,1,3.44.57Z"/><path class="cls-7" d="M85.67,85.24l-.54-.52c1.74-1.8,2.26-3.4,1.59-4.89l.69-.31C88.21,81.3,87.62,83.22,85.67,85.24Z"/><path class="cls-7" d="M84,84.06l-.6-.44a2.64,2.64,0,0,1,3.44-.57l-.37.66C86.42,83.67,84.89,82.86,84,84.06Z"/><rect class="cls-7" x="48.47" y="82.32" width="0.75" height="4.55" transform="translate(-7.57 4.85) rotate(-5.27)"/><rect class="cls-7" x="79.97" y="84.22" width="4.55" height="0.75" transform="translate(-9.6 158.65) rotate(-84.69)"/><path class="cls-6" d="M65.54,48.83c-9.49.08-19.14,4.85-18.49,13.06,4.06,7.89,32.92,7.89,37,0C84.68,53.68,75,48.91,65.54,48.83Z"/><path class="cls-6" d="M48.36,77.63c-.57-5.11,1.39-12,7.75-15.08L50.9,60C47.64,64.15,46,72,48.36,77.63Z"/><path class="cls-6" d="M82.69,77.63c.58-5.11-1.38-12-7.74-15.08L80.15,60C83.42,64.15,85.1,72,82.69,77.63Z"/></g></g></svg>