<svg xmlns="http://www.w3.org/2000/svg" viewBox="0 0 131.19 154.84"><defs><style>.cls-1{fill:#fcfcd2;}.cls-2{fill:#e2988f;}.cls-3{fill:#fff;}.cls-4{fill:#f4ba5d;}.cls-5{fill:#4c224b;}.cls-6{fill:#eabfb9;}.cls-7{fill:#703870;}.cls-8{fill:#c46966;}</style></defs><title>team2</title><g id="Livello_2" data-name="Livello 2"><g id="BACKGROUND"><rect class="cls-1" width="131.19" height="154.84"/></g><g id="OBJECTS"><rect class="cls-2" x="52.73" y="88.16" width="25.63" height="28.06"/><path class="cls-3" d="M122,130c-5.18-5.76-43.66-21.88-43.66-21.88-2.47,2.36-8.11,3.56-12.75,3.61s-10.41-1.25-12.87-3.61c0,0-38.37,16.12-43.55,21.88S0,153.24,0,153.24H131.19S127.19,135.77,122,130Z"/><path class="cls-4" d="M6.31,134.51C2.59,141.92,0,153.24,0,153.24H131.19s-2.59-11.32-6.3-18.73Z"/><path class="cls-4" d="M22.85,131.43h85.49A66.84,66.84,0,0,1,112.4,143h.48s-1.87-8.16-4.54-13.5H22.85c-2.67,5.34-4.54,13.5-4.54,13.5h.49A65.88,65.88,0,0,1,22.85,131.43Z"/><path class="cls-5" d="M42.66,112.33c-11.58,5.19-30,13.8-33.48,17.69C4,135.77,0,153.24,0,153.24H48.6Z"/><path class="cls-5" d="M88.53,112.33c11.58,5.19,30,13.8,33.48,17.69,5.18,5.75,9.18,23.22,9.18,23.22H82.6Z"/><path class="cls-6" d="M65.81,115.22c-6.28,0-12.7-1.69-17.28-5.09l.45-.6c8.83,6.56,25.47,6.48,33-.15l.49.57C78.47,113.46,72.22,115.22,65.81,115.22Z"/><rect class="cls-7" x="17.15" y="132.61" width="0.75" height="20.74" transform="translate(-20.58 4.06) rotate(-8.35)"/><rect class="cls-7" x="101.36" y="142.6" width="20.74" height="0.75" transform="translate(-46.01 232.66) rotate(-81.62)"/><path class="cls-5" d="M46.59,76.75S42.48,50.58,65.67,50.58,84.5,76.75,84.5,76.75s2,23.16-19,23.16S46.59,76.75,46.59,76.75Z"/><path class="cls-2" d="M65.54,54.7c-11.78,0-16.67,10.74-16.24,24l.51,9.23c.14,11.78,11.35,14.8,15.73,14.8S81.8,99,81.27,87.93l.51-9.23C82.21,65.44,77.31,54.7,65.54,54.7Z"/><path class="cls-8" d="M65.54,105.12c-4.64,0-10.35-3.62-13.28-8.42l.64-.39c2.76,4.52,8.32,8.06,12.64,8.06s10-3.53,12.66-8.05l.65.38C76,101.5,70.29,105.12,65.54,105.12Z"/><path class="cls-5" d="M49.3,78.7c-.55-5.1,1.31-12,7.32-15.08L51.7,61.1C48.61,65.22,47,73.05,49.3,78.7Z"/><path class="cls-5" d="M81.76,78.7c.55-5.1-1.3-12-7.32-15.08l4.92-2.52C82.45,65.22,84,73.05,81.76,78.7Z"/><path class="cls-5" d="M50.93,64.16l.77-3.06s1.53-7.32,13.9-7.32,15,8.33,15,8.33l-6.13,1.51c-6.33,1.77-12.28,1.86-17.82,0Z"/><path class="cls-2" d="M49.47,76.08s-3.94-4.84-7,.35,5.06,14,7.47,10Z"/><path class="cls-2" d="M81.63,76.08s3.94-4.84,7,.35-5,14-7.47,10Z"/><path class="cls-8" d="M46.52,84.48c-1.82-2.34-2.37-4.55-1.63-6.58l.71.26C45,79.93,45.46,81.9,47.11,84Z"/><path class="cls-8" d="M48.09,83.11a1.43,1.43,0,0,0-.89-.74,2.08,2.08,0,0,0-1.37.31l-.42-.62a2.74,2.74,0,0,1,2-.42,2.13,2.13,0,0,1,1.38,1.09Z"/><path class="cls-8" d="M84.62,84.48,84,84c1.65-2.12,2.16-4.09,1.52-5.86l.7-.26C87,79.93,86.44,82.14,84.62,84.48Z"/><path class="cls-8" d="M83.05,83.11l-.65-.38a2.15,2.15,0,0,1,1.38-1.09,2.76,2.76,0,0,1,2,.42l-.42.62a2.06,2.06,0,0,0-1.37-.31A1.43,1.43,0,0,0,83.05,83.11Z"/><rect class="cls-8" x="49.38" y="81.13" width="0.75" height="5.33" transform="translate(-6.08 3.92) rotate(-4.26)"/><rect class="cls-8" x="78.68" y="83.42" width="5.33" height="0.75" transform="translate(-8.26 158.69) rotate(-85.74)"/></g></g></svg>