<svg xmlns="http://www.w3.org/2000/svg" viewBox="0 0 131.19 154.84"><defs><style>.cls-1{fill:#d2e6f9;}.cls-2{fill:#4c224b;}.cls-3{fill:#e2988f;}.cls-4{fill:#d85d63;}.cls-5{fill:#c46966;}.cls-6{fill:#f4ba5d;}.cls-7{fill:#b73d49;}</style></defs><title>team3</title><g id="Livello_2" data-name="Livello 2"><g id="BACKGROUND"><rect class="cls-1" width="131.19" height="154.84"/></g><g id="OBJECTS"><path class="cls-2" d="M40.25,67.53C43.38,60.65,48,55.06,55.43,52.62a24.63,24.63,0,0,1,17.22.8C78.57,56,82.54,60.6,84.82,66.56c.42,1.12.8,2.26,1.13,3.41,1.4,4.89,2.86,9.77,4.55,14.58s4.13,9.28,6,14.06c3.13,8.18,5.07,17.28,3.8,26a25.79,25.79,0,0,1-4.19,11.14c-2.79,4-11.68.75-16.14,2.82-9.29,0-58-4.59-58-4.59-4.47-12.23-.78-24.88,4.81-36.12,3-6,7.05-11.24,9.15-17.69C37.29,76,38.41,71.59,40.25,67.53Z"/><path class="cls-3" d="M93.74,119.33c-9.8-3.91-19.3-7.34-19.3-7.34l0,0v-18h-23V112h0s-9.48,3.43-19.26,7.34C53.35,131.67,73.9,131.91,93.74,119.33Z"/><path class="cls-4" d="M114.37,128.2C110.9,124.52,83.46,115,83.46,115c-13.66,8-27.22,7.58-40.69-.18,0,0-27.71,9.62-31.23,13.34C6.36,133.7,2.36,154,2.36,154H123.55S119.55,133.7,114.37,128.2Z"/><path class="cls-3" d="M62.9,56.3c-12.45,0-17.63,10.75-17.18,24l.55,9.23c2.47,10.95,10.06,18.54,16.63,18.54s14.15-7.59,16.63-18.54l.54-9.23C80.52,67.05,75.35,56.3,62.9,56.3Z"/><path class="cls-5" d="M62.9,108.46c-4,0-8.4-2.74-11.82-7.32l.61-.45c3.27,4.39,7.46,7,11.21,7s7.94-2.63,11.21-7l.6.45C71.3,105.72,66.88,108.46,62.9,108.46Z"/><path class="cls-3" d="M45.93,78.82s-3.92-5.13-7,.37S44,94,46.42,89.8Z"/><path class="cls-3" d="M79.88,78.82s3.84-5.13,6.82.37S81.76,94,79.4,89.8Z"/><path class="cls-5" d="M42.81,87.69c-1.92-2.46-2.5-4.8-1.73-6.94l.71.26c-.68,1.88-.14,4,1.61,6.22Z"/><path class="cls-5" d="M44.47,86.24a1.58,1.58,0,0,0-1-.79,2.12,2.12,0,0,0-1.46.34l-.42-.62a2.87,2.87,0,0,1,2-.45,2.27,2.27,0,0,1,1.45,1.14Z"/><path class="cls-5" d="M83.06,87.69l-.59-.46c1.75-2.25,2.29-4.34,1.6-6.22l.71-.26C85.56,82.89,85,85.23,83.06,87.69Z"/><path class="cls-5" d="M81.39,86.24l-.64-.38a2.22,2.22,0,0,1,1.45-1.14,2.91,2.91,0,0,1,2,.45l-.43.62a2.08,2.08,0,0,0-1.46-.34A1.58,1.58,0,0,0,81.39,86.24Z"/><rect class="cls-5" x="45.84" y="85" width="0.75" height="4.55" transform="matrix(1, -0.09, 0.09, 1, -7.84, 4.63)"/><rect class="cls-5" x="77.33" y="86.9" width="4.55" height="0.75" transform="translate(-14.65 158.47) rotate(-84.69)"/><path class="cls-2" d="M44.79,76.6C51,79.2,56.4,75.33,62.9,63.47c4.37,11.06,10.26,15.91,18.63,13,0,0-.75-20.13-15.17-21.15C39,55,44.79,76.6,44.79,76.6Z"/><path class="cls-6" d="M62.41,57.55a21.59,21.59,0,0,1,17.2,8.12,18.63,18.63,0,0,0-34.4,0A21.58,21.58,0,0,1,62.41,57.55Z"/><rect class="cls-7" x="25.86" y="142" width="0.75" height="12.03" transform="translate(-20.59 5.17) rotate(-8.1)"/><rect class="cls-7" x="93.55" y="147.64" width="12.03" height="0.75" transform="translate(-61 225.76) rotate(-81.91)"/></g></g></svg>